# 3ds Max Wavefront OBJ Exporter v0.97b - (c)2007 guruware
# File Created: 10.11.2013 23:00:03

mtllib resize.mtl

#
# object Box001
#

v  -20.0000 -20.0000 0.0000
v  -20.0000 20.0000 0.0000
v  20.0000 20.0000 0.0000
v  20.0000 -20.0000 0.0000
v  20.0000 -20.0000 1.2707
v  -20.0000 -20.0000 1.2707
v  20.0000 20.0000 1.2707
v  -20.0000 20.0000 1.2707
# 8 vertices

vn 0.0000 0.0000 -1.0000
vn 0.0000 -1.0000 0.0000
vn 1.0000 0.0000 0.0000
vn 0.0000 1.0000 0.0000
vn -1.0000 0.0000 0.0000
vn 0.0000 0.0000 1.0000
# 6 vertex normals

vt -0.4748 0.4712 0.0000
vt -0.4748 -0.4848 0.0000
vt 0.4812 -0.4848 0.0000
vt 0.4812 0.4712 0.0000
vt 1.4550 0.4651 0.0000
vt 0.4990 0.4651 0.0000
vt 0.4990 0.3456 0.0000
vt 1.4550 0.3456 0.0000
vt 1.4550 0.9841 0.0000
vt 0.4990 0.9841 0.0000
vt 0.4990 0.8646 0.0000
vt 1.4550 0.8646 0.0000
vt 1.4550 0.6381 0.0000
vt 0.4990 0.6381 0.0000
vt 0.4990 0.5186 0.0000
vt 1.4550 0.5186 0.0000
vt 1.4550 0.8111 0.0000
vt 0.4990 0.8111 0.0000
vt 0.4990 0.6916 0.0000
vt 1.4550 0.6916 0.0000
# 20 texture coords

g Box001
usemtl Material__2
s off
f 1/1/1 2/2/1 3/3/1 
f 3/3/1 4/4/1 1/1/1 
f 1/5/2 4/6/2 5/7/2 
f 5/7/2 6/8/2 1/5/2 
f 4/9/3 3/10/3 7/11/3 
f 7/11/3 5/12/3 4/9/3 
f 3/13/4 2/14/4 8/15/4 
f 8/15/4 7/16/4 3/13/4 
f 2/17/5 1/18/5 6/19/5 
f 6/19/5 8/20/5 2/17/5 
s 1
f 8/9/6 6/5/6 5/6/6 
f 5/6/6 7/10/6 8/9/6 
# 12 faces

#
# object Loft001
#

#
# object Loft002
#

v  -11.0272 0.7096 2.8476
v  -12.3402 12.2812 2.8476
v  -12.3402 12.2812 1.0854
v  -11.0272 0.7096 1.0854
v  -7.6394 1.0933 2.8476
v  -7.6394 1.0933 1.0854
v  -8.1617 5.6924 2.8476
v  -8.1617 5.6924 1.0854
v  -1.1251 -1.3442 2.8476
v  -1.1251 -1.3442 1.0854
v  1.2855 1.0665 2.8476
v  1.2855 1.0665 1.0854
v  -5.7502 8.1022 2.8476
v  -5.7502 8.1022 1.0854
v  -1.1523 7.5804 2.8476
v  -1.1523 7.5804 1.0854
v  -0.7683 10.9685 2.8476
v  -0.7683 10.9685 1.0854
# 18 vertices

vn -0.9936 -0.1127 -0.0000
vn 0.1125 -0.9936 0.0000
vn 0.9936 0.1128 0.0000
vn -0.7071 -0.7071 0.0000
vn 0.7071 -0.7071 0.0000
vn 0.7071 0.7071 -0.0000
vn -0.1128 -0.9936 0.0000
vn 0.9936 -0.1126 0.0000
vn 0.1127 0.9936 -0.0000
vn -0.0000 0.0000 -1.0000
vn 0.0000 -0.0000 1.0000
# 11 vertex normals

g Loft002
usemtl Material__3
s off
f 9//7 10//7 11//7 
f 11//7 12//7 9//7 
f 13//8 9//8 12//8 
f 12//8 14//8 13//8 
f 15//9 13//9 14//9 
f 14//9 16//9 15//9 
f 17//10 15//10 16//10 
f 16//10 18//10 17//10 
f 19//11 17//11 18//11 
f 18//11 20//11 19//11 
f 21//12 19//12 20//12 
f 20//12 22//12 21//12 
f 23//13 21//13 22//13 
f 22//13 24//13 23//13 
f 25//14 23//14 24//14 
f 24//14 26//14 25//14 
f 26//15 11//15 10//15 
f 10//15 25//15 26//15 
f 22//16 20//16 18//16 
f 22//16 18//16 16//16 
f 16//16 14//16 12//16 
f 16//16 12//16 11//16 
f 22//16 16//16 11//16 
f 22//16 11//16 26//16 
f 22//16 26//16 24//16 
f 21//17 23//17 25//17 
f 21//17 25//17 10//17 
f 9//17 13//17 15//17 
f 10//17 9//17 15//17 
f 21//17 10//17 15//17 
f 21//17 15//17 17//17 
f 21//17 17//17 19//17 
# 32 faces

#
# object Loft003
#

v  10.9388 -0.7866 2.8476
v  12.2518 -12.3582 2.8476
v  12.2518 -12.3582 1.0854
v  10.9388 -0.7866 1.0854
v  7.5511 -1.1702 2.8476
v  7.5511 -1.1702 1.0854
v  8.0734 -5.7693 2.8476
v  8.0734 -5.7693 1.0854
v  1.0368 1.2672 2.8476
v  1.0368 1.2672 1.0854
v  -1.3738 -1.1434 2.8476
v  -1.3738 -1.1434 1.0854
v  5.6619 -8.1791 2.8476
v  5.6619 -8.1791 1.0854
v  1.0639 -7.6574 2.8476
v  1.0639 -7.6574 1.0854
v  0.6800 -11.0455 2.8476
v  0.6799 -11.0455 1.0854
# 18 vertices

vn 0.9936 0.1127 -0.0000
vn -0.1125 0.9936 0.0000
vn -0.9936 -0.1128 0.0000
vn 0.7071 0.7071 0.0000
vn -0.7071 0.7071 0.0000
vn -0.7071 -0.7071 -0.0000
vn 0.1128 0.9936 0.0000
vn -0.9936 0.1126 0.0000
vn -0.1127 -0.9936 -0.0000
vn 0.0000 -0.0000 -1.0000
vn -0.0000 0.0000 1.0000
# 11 vertex normals

g Loft003
usemtl Material__3
s off
f 27//18 28//18 29//18 
f 29//18 30//18 27//18 
f 31//19 27//19 30//19 
f 30//19 32//19 31//19 
f 33//20 31//20 32//20 
f 32//20 34//20 33//20 
f 35//21 33//21 34//21 
f 34//21 36//21 35//21 
f 37//22 35//22 36//22 
f 36//22 38//22 37//22 
f 39//23 37//23 38//23 
f 38//23 40//23 39//23 
f 41//24 39//24 40//24 
f 40//24 42//24 41//24 
f 43//25 41//25 42//25 
f 42//25 44//25 43//25 
f 44//26 29//26 28//26 
f 28//26 43//26 44//26 
f 40//27 38//27 36//27 
f 40//27 36//27 34//27 
f 34//27 32//27 30//27 
f 34//27 30//27 29//27 
f 40//27 34//27 29//27 
f 40//27 29//27 44//27 
f 40//27 44//27 42//27 
f 39//28 41//28 43//28 
f 39//28 43//28 28//28 
f 27//28 31//28 33//28 
f 28//28 27//28 33//28 
f 39//28 28//28 33//28 
f 39//28 33//28 35//28 
f 39//28 35//28 37//28 
# 32 faces

