# 3ds Max Wavefront OBJ Exporter v0.97b - (c)2007 guruware
# File Created: 10.11.2013 23:33:23

mtllib spawn.mtl

#
# object Box001
#

v  -20.0000 -20.0000 0.0000
v  -20.0000 20.0000 0.0000
v  20.0000 20.0000 0.0000
v  20.0000 -20.0000 0.0000
v  -20.0000 -20.0000 2.0000
v  20.0000 -20.0000 2.0000
v  20.0000 20.0000 2.0000
v  -20.0000 20.0000 2.0000
# 8 vertices

vn 0.0000 0.0000 -1.0000
vn 0.0000 0.0000 1.0000
vn 0.0000 -1.0000 0.0000
vn 1.0000 0.0000 0.0000
vn 0.0000 1.0000 0.0000
vn -1.0000 0.0000 0.0000
# 6 vertex normals

vt 0.0100 0.9900 0.0000
vt 0.0100 0.5036 0.0000
vt 0.4964 0.5036 0.0000
vt 0.4964 0.9900 0.0000
vt 0.0100 0.0100 0.0000
vt 0.4964 0.0100 0.0000
vt 0.4964 0.4964 0.0000
vt 0.0100 0.4964 0.0000
vt 0.5279 0.0100 0.0000
vt 0.5279 0.4964 0.0000
vt 0.5036 0.4964 0.0000
vt 0.5036 0.0100 0.0000
vt 0.6442 0.0100 0.0000
vt 0.6442 0.4964 0.0000
vt 0.6199 0.4964 0.0000
vt 0.6199 0.0100 0.0000
vt 0.5667 0.0100 0.0000
vt 0.5667 0.4964 0.0000
vt 0.5424 0.4964 0.0000
vt 0.5424 0.0100 0.0000
vt 0.6054 0.0100 0.0000
vt 0.6054 0.4964 0.0000
vt 0.5811 0.4964 0.0000
vt 0.5811 0.0100 0.0000
# 24 texture coords

g Box001
usemtl Material__4
s 2
f 1/1/1 2/2/1 3/3/1 
f 3/3/1 4/4/1 1/1/1 
s 4
f 5/5/2 6/6/2 7/7/2 
f 7/7/2 8/8/2 5/5/2 
s 8
f 1/9/3 4/10/3 6/11/3 
f 6/11/3 5/12/3 1/9/3 
s 16
f 4/13/4 3/14/4 7/15/4 
f 7/15/4 6/16/4 4/13/4 
s 32
f 3/17/5 2/18/5 8/19/5 
f 8/19/5 7/20/5 3/17/5 
s 64
f 2/21/6 1/22/6 5/23/6 
f 5/23/6 8/24/6 2/21/6 
# 12 faces

#
# object Loft001
#

v  8.4212 1.6961 2.6312
v  11.9086 1.6961 2.6312
v  11.9087 1.6960 1.8272
v  8.4212 1.6960 1.8272
v  8.4212 5.0849 2.6312
v  8.4212 5.0848 1.8272
v  5.0324 5.0849 2.6312
v  5.0324 5.0848 1.8272
v  5.0324 8.4707 2.6312
v  5.0324 8.4706 1.8272
v  1.6436 8.4707 2.6312
v  1.6436 8.4706 1.8272
v  1.6436 11.8595 2.6312
v  1.6436 11.8594 1.8272
v  -1.7452 11.8595 2.6312
v  -1.7452 11.8594 1.8272
v  -1.7452 8.4707 2.6312
v  -1.7452 8.4706 1.8272
v  -5.1311 8.4707 2.6312
v  -5.1311 8.4706 1.8272
v  -5.1311 5.0849 2.6312
v  -5.1311 5.0848 1.8272
v  -8.5199 5.0849 2.6312
v  -8.5199 5.0848 1.8272
v  -8.5199 1.6961 2.6312
v  -8.5199 1.6960 1.8272
v  -11.9087 1.6961 2.6312
v  -11.9086 1.6960 1.8272
v  -11.9087 -1.6931 2.6312
v  -11.9086 -1.6932 1.8272
v  -8.5199 -1.6931 2.6312
v  -8.5199 -1.6932 1.8272
v  -8.5199 -11.8594 2.6312
v  -8.5199 -11.8595 1.8272
v  -3.4367 -11.8594 2.6312
v  -3.4367 -11.8595 1.8272
v  -3.4367 -1.6931 2.6312
v  -3.4367 -1.6932 1.8272
v  3.3380 -1.6931 2.6312
v  3.3380 -1.6932 1.8272
v  3.3380 -11.8594 2.6312
v  3.3380 -11.8595 1.8272
v  8.4212 -11.8594 2.6312
v  8.4212 -11.8595 1.8272
v  8.4212 -1.6931 2.6312
v  8.4212 -1.6932 1.8272
v  11.9086 -1.6931 2.6312
v  11.9087 -1.6932 1.8272
# 48 vertices

vn -0.0000 1.0000 -0.0000
vn 1.3258 -0.0000 -0.0009
vn -1.3258 0.0000 0.0009
vn 0.0000 -1.0000 0.0000
vn -1.3258 -0.0000 0.0009
vn 0.4922 -0.0000 -0.0042
vn 0.4922 0.0000 -0.0042
vn -0.4922 0.0000 0.0042
vn -0.4922 -0.0000 0.0042
# 9 vertex normals

vt 1.0000 1.0000 0.0000
vt 0.0000 1.0000 0.0000
vt 0.0000 0.0000 0.0000
vt 1.0000 0.0000 0.0000
vt 0.0363 0.2600 0.0000
vt 0.1403 0.1679 0.0000
vt 0.2338 0.2763 0.0000
vt 0.1299 0.3684 0.0000
vt 0.5456 0.0000 0.0000
vt 0.6819 0.1579 0.0000
vt 0.3702 0.4342 0.0000
vt 0.5519 0.6447 0.0000
vt 0.8636 0.3684 0.0000
vt 1.0000 0.5263 0.0000
vt 0.6882 0.8026 0.0000
vt 0.7791 0.9079 0.0000
vt 0.6752 1.0000 0.0000
vt 0.5843 0.8947 0.0000
vt 0.4804 0.9868 0.0000
vt 0.3895 0.8815 0.0000
vt 0.2856 0.9735 0.0000
vt 0.1948 0.8683 0.0000
vt 0.0909 0.9604 0.0000
vt 0.0000 0.8551 0.0000
vt 0.1039 0.7631 0.0000
vt 0.0130 0.6578 0.0000
vt 0.1169 0.5658 0.0000
vt 0.0260 0.4605 0.0000
vt 0.3684 0.1299 0.0000
vt 0.4605 0.0260 0.0000
vt 0.5658 0.1169 0.0000
vt 0.6578 0.0130 0.0000
vt 0.7631 0.1039 0.0000
vt 0.8551 0.0000 0.0000
vt 0.9604 0.0909 0.0000
vt 0.8683 0.1948 0.0000
vt 0.9735 0.2856 0.0000
vt 0.8815 0.3895 0.0000
vt 0.9868 0.4804 0.0000
vt 0.8947 0.5843 0.0000
vt 1.0000 0.6752 0.0000
vt 0.9079 0.7791 0.0000
vt 0.8026 0.6882 0.0000
vt 0.5263 1.0000 0.0000
vt 0.3684 0.8636 0.0000
vt 0.6447 0.5519 0.0000
vt 0.4342 0.3702 0.0000
vt 0.1579 0.6819 0.0000
vt 0.0000 0.5456 0.0000
vt 0.2763 0.2338 0.0000
vt 0.1679 0.1403 0.0000
vt 0.2600 0.0363 0.0000
# 52 texture coords

g Loft001
usemtl Material__5
s 2049
f 9/25/7 10/26/7 11/27/7 
f 11/27/7 12/28/7 9/25/7 
s 4100
f 13/25/8 9/26/8 12/27/8 
f 12/27/8 14/28/8 13/25/8 
s 8194
f 15/25/7 13/26/7 14/27/7 
f 14/27/7 16/28/7 15/25/7 
s 4100
f 17/25/8 15/26/8 16/27/8 
f 16/27/8 18/28/8 17/25/8 
s 8194
f 19/25/7 17/26/7 18/27/7 
f 18/27/7 20/28/7 19/25/7 
s 4100
f 21/25/8 19/26/8 20/27/8 
f 20/27/8 22/28/8 21/25/8 
s 8194
f 23/25/7 21/26/7 22/27/7 
f 22/27/7 24/28/7 23/25/7 
s 4100
f 25/25/9 23/26/9 24/27/9 
f 24/27/9 26/28/9 25/25/9 
s 8194
f 27/25/7 25/26/7 26/27/7 
f 26/27/7 28/28/7 27/25/7 
s 4100
f 29/25/9 27/26/9 28/27/9 
f 28/27/9 30/28/9 29/25/9 
s 8194
f 31/25/7 29/26/7 30/27/7 
f 30/27/7 32/28/7 31/25/7 
s 4100
f 33/25/9 31/26/9 32/27/9 
f 32/27/9 34/28/9 33/25/9 
s 8194
f 35/25/7 33/26/7 34/27/7 
f 34/27/7 36/28/7 35/25/7 
s 4100
f 37/25/9 35/26/9 36/27/9 
f 36/27/9 38/28/9 37/25/9 
s 8194
f 39/25/10 37/26/10 38/27/10 
f 38/27/10 40/28/10 39/25/10 
s 4100
f 41/25/9 39/26/9 40/27/9 
f 40/27/9 42/28/9 41/25/9 
s 8194
f 43/25/10 41/26/10 42/27/10 
f 42/27/10 44/28/10 43/25/10 
s 4100
f 45/25/8 43/26/8 44/27/8 
f 44/27/8 46/28/8 45/25/8 
s 8194
f 47/25/10 45/26/10 46/27/10 
f 46/27/10 48/28/10 47/25/10 
s 4100
f 49/25/9 47/26/9 48/27/11 
f 48/27/11 50/28/11 49/25/9 
s 8194
f 51/25/10 49/26/10 50/27/10 
f 50/27/10 52/28/10 51/25/10 
s 4100
f 53/25/8 51/26/8 52/27/8 
f 52/27/8 54/28/8 53/25/8 
s 8194
f 55/25/10 53/26/10 54/27/10 
f 54/27/10 56/28/10 55/25/10 
s 4100
f 10/25/8 55/26/8 56/27/8 
f 56/27/8 11/28/8 10/25/8 
s 2147483648
f 11/29/12 56/30/12 54/31/12 
f 12/32/12 11/29/12 54/31/12 
f 54/31/12 52/33/12 50/34/12 
f 54/31/12 50/34/12 48/35/12 
f 12/32/12 54/31/12 48/35/12 
f 46/36/12 44/37/12 42/38/12 
f 46/36/12 42/38/12 40/39/12 
f 40/39/12 38/40/12 36/41/12 
f 40/39/12 36/41/12 34/42/12 
f 46/36/12 40/39/12 34/42/12 
f 34/42/12 32/43/12 30/44/12 
f 46/36/12 34/42/12 30/44/12 
f 30/44/12 28/45/12 26/46/12 
f 26/46/12 24/47/12 22/48/12 
f 26/46/12 22/48/12 20/49/13 
f 30/44/12 26/46/12 20/49/13 
f 20/49/13 18/50/12 16/51/12 
f 30/44/12 20/49/13 16/51/12 
f 46/36/12 30/44/12 16/51/12 
f 48/35/12 46/36/12 16/51/12 
f 12/32/12 48/35/12 16/51/12 
f 12/32/12 16/51/12 14/52/12 
f 9/53/14 13/54/14 15/55/14 
f 15/55/14 17/56/14 19/57/15 
f 21/58/14 23/59/14 25/60/14 
f 19/57/15 21/58/14 25/60/14 
f 25/60/14 27/61/14 29/62/14 
f 19/57/15 25/60/14 29/62/14 
f 15/55/14 19/57/15 29/62/14 
f 29/62/14 31/63/14 33/64/14 
f 35/65/14 37/66/14 39/67/14 
f 33/64/14 35/65/14 39/67/14 
f 41/68/14 43/69/14 45/70/14 
f 39/67/14 41/68/14 45/70/14 
f 33/64/14 39/67/14 45/70/14 
f 29/62/14 33/64/14 45/70/14 
f 15/55/14 29/62/14 45/70/14 
f 15/55/14 45/70/14 47/71/14 
f 9/53/14 15/55/14 47/71/14 
f 49/72/14 51/73/14 53/74/14 
f 47/71/14 49/72/14 53/74/14 
f 9/53/14 47/71/14 53/74/14 
f 53/74/14 55/75/14 10/76/14 
f 9/53/14 53/74/14 10/76/14 
# 92 faces

