# 3ds Max Wavefront OBJ Exporter v0.97b - (c)2007 guruware
# File Created: 10.11.2013 12:49:30

mtllib tower.mtl

#
# object Box001
#

v  20.0000 -20.0000 0.0000
v  20.0000 -20.0000 2.8565
v  8.4922 -20.0000 2.8565
v  8.4922 -20.0000 0.0000
v  2.8307 -20.0000 2.8565
v  2.8307 -20.0000 0.0000
v  -2.8307 -20.0000 2.8565
v  -2.8307 -20.0000 0.0000
v  -8.4922 -20.0000 2.8565
v  -20.0000 -20.0000 2.8565
v  -20.0000 -20.0000 0.0000
v  -8.4922 -20.0000 0.0000
v  20.0000 20.0000 0.0000
v  20.0000 20.0000 2.8565
v  20.0000 8.6363 2.8565
v  20.0000 8.6363 0.0000
v  20.0000 2.8788 2.8565
v  20.0000 2.8788 0.0000
v  20.0000 -2.8788 2.8565
v  20.0000 -2.8788 0.0000
v  20.0000 -8.6363 2.8565
v  20.0000 -8.6363 0.0000
v  -20.0000 20.0000 0.0000
v  -20.0000 20.0000 2.8565
v  -8.4922 20.0000 2.8565
v  -8.4922 20.0000 0.0000
v  -2.8307 20.0000 2.8565
v  -2.8307 20.0000 0.0000
v  2.8307 20.0000 2.8565
v  2.8307 20.0000 0.0000
v  8.4922 20.0000 2.8565
v  8.4922 20.0000 0.0000
v  -20.0000 -8.6363 2.8565
v  -20.0000 -8.6363 0.0000
v  -20.0000 -2.8788 2.8565
v  -20.0000 -2.8788 0.0000
v  -20.0000 2.8788 2.8565
v  -20.0000 2.8788 0.0000
v  -20.0000 8.6363 2.8565
v  -20.0000 8.6363 0.0000
v  17.5686 -17.5686 2.8565
v  8.4796 -17.5686 2.8565
v  2.8265 -17.5686 2.8565
v  -2.8265 -17.5686 2.8565
v  -8.4796 -17.5686 2.8565
v  -17.5686 -17.5686 2.8565
v  17.5686 17.5686 2.8565
v  17.5686 8.6237 2.8565
v  17.5686 2.8746 2.8565
v  17.5686 -2.8746 2.8565
v  17.5686 -8.6237 2.8565
v  -17.5686 17.5686 2.8565
v  -8.4796 17.5686 2.8565
v  -2.8265 17.5686 2.8565
v  2.8265 17.5686 2.8565
v  8.4796 17.5686 2.8565
v  -17.5686 -8.6237 2.8565
v  -17.5686 -2.8746 2.8565
v  -17.5686 2.8746 2.8565
v  -17.5686 8.6237 2.8565
v  2.8153 -11.0380 41.1698
v  2.8127 -9.5380 41.1698
v  -2.8127 -9.5380 41.1698
v  -2.8153 -11.0380 41.1698
v  11.0380 2.8633 41.1698
v  9.5380 2.8608 41.1698
v  9.5380 -2.8608 41.1698
v  11.0380 -2.8633 41.1698
v  -2.8153 11.0380 41.1698
v  -2.8127 9.5380 41.1698
v  2.8127 9.5380 41.1698
v  2.8153 11.0380 41.1698
v  -11.0380 -2.8633 41.1698
v  -9.5380 -2.8608 41.1698
v  -9.5380 2.8608 41.1698
v  -11.0380 2.8633 41.1698
v  -15.5452 15.5452 13.6772
v  -15.3293 15.3293 14.8318
v  -12.9218 12.9218 27.7067
v  -12.6801 12.6801 28.9997
v  -11.0380 11.0380 37.7814
v  -8.4459 11.0380 37.7814
v  -2.8153 11.0380 37.7814
v  8.4459 11.0380 37.7814
v  11.0380 11.0380 37.7814
v  12.6801 12.6801 28.9997
v  2.8153 11.0380 37.7814
v  12.9218 12.9218 27.7067
v  15.5452 15.5452 13.6772
v  15.3293 15.3293 14.8318
v  8.4462 -11.0383 41.1698
v  11.0383 -11.0383 41.1698
v  9.5383 -9.5383 41.1698
v  8.4385 -9.5383 41.1698
v  2.8153 -11.0380 38.7866
v  8.4459 -11.0380 38.7866
v  8.4382 -9.5380 38.7866
v  2.8127 -9.5380 38.7866
v  -9.5383 -9.5383 41.1698
v  -11.0383 -11.0383 41.1698
v  -8.4462 -11.0383 41.1698
v  -8.4385 -9.5383 41.1698
v  -8.4382 -9.5380 38.7866
v  -8.4459 -11.0380 38.7866
v  -2.8153 -11.0380 38.7866
v  -2.8127 -9.5380 38.7866
v  -8.4462 11.0383 41.1698
v  -11.0383 11.0383 41.1698
v  -9.5383 9.5383 41.1698
v  -8.4385 9.5383 41.1698
v  -2.8153 11.0380 38.7866
v  -8.4459 11.0380 38.7866
v  -8.4382 9.5380 38.7866
v  -2.8127 9.5380 38.7866
v  9.5383 9.5383 41.1698
v  11.0383 11.0383 41.1698
v  8.4462 11.0383 41.1698
v  8.4385 9.5383 41.1698
v  8.4382 9.5380 38.7866
v  8.4459 11.0380 38.7866
v  2.8153 11.0380 38.7866
v  2.8127 9.5380 38.7866
v  8.4459 -11.0380 37.7814
v  2.8153 -11.0380 37.7814
v  -8.4459 -11.0380 37.7814
v  -2.8153 -11.0380 37.7814
v  -8.4382 -9.5380 37.7814
v  -2.8127 -9.5380 37.7814
v  8.4382 -9.5380 37.7814
v  2.8127 -9.5380 37.7814
v  8.4382 9.5380 37.7814
v  2.8127 9.5380 37.7814
v  -8.4382 9.5380 37.7814
v  -2.8127 9.5380 37.7814
v  -9.5380 9.5380 37.7814
v  -9.5380 8.5823 37.7814
v  -9.5380 2.8608 37.7814
v  -9.5380 -2.8608 37.7814
v  -9.5380 -8.5823 37.7814
v  -9.5380 -9.5380 37.7814
v  9.5380 -9.5380 37.7814
v  9.5380 -8.5823 37.7814
v  9.5380 -2.8608 37.7814
v  9.5380 2.8608 37.7814
v  9.5380 8.5823 37.7814
v  9.5380 9.5380 37.7814
v  -15.5452 -15.5452 13.6772
v  -15.3293 -15.3293 14.8318
v  -12.9218 -12.9218 27.7067
v  -12.6801 -12.6801 28.9997
v  -11.0380 -11.0380 37.7814
v  -11.0380 -8.5900 37.7814
v  -11.0380 8.5900 37.7814
v  -11.0380 2.8633 37.7814
v  -11.0380 -2.8633 37.7814
v  11.0383 8.5903 41.1698
v  9.5383 8.5826 41.1698
v  11.0380 2.8633 38.7866
v  11.0380 8.5900 38.7866
v  9.5380 8.5823 38.7866
v  9.5380 2.8608 38.7866
v  11.0383 -8.5903 41.1698
v  9.5383 -8.5826 41.1698
v  9.5380 -8.5823 38.7866
v  11.0380 -8.5900 38.7866
v  11.0380 -2.8633 38.7866
v  9.5380 -2.8608 38.7866
v  -11.0383 -8.5903 41.1698
v  -9.5383 -8.5826 41.1698
v  -11.0380 -2.8633 38.7866
v  -11.0380 -8.5900 38.7866
v  -9.5380 -8.5823 38.7866
v  -9.5380 -2.8608 38.7866
v  -11.0383 8.5903 41.1698
v  -9.5383 8.5826 41.1698
v  -9.5380 8.5823 38.7866
v  -11.0380 8.5900 38.7866
v  -11.0380 2.8633 38.7866
v  -9.5380 2.8608 38.7866
v  11.0380 8.5900 37.7814
v  11.0380 2.8633 37.7814
v  11.0380 -8.5900 37.7814
v  11.0380 -2.8633 37.7814
v  11.0380 -11.0380 38.7866
v  11.0380 -11.0380 37.7814
v  9.5380 -9.5380 38.7866
v  -11.0380 -11.0380 38.7866
v  -9.5380 -9.5380 38.7866
v  -11.0380 11.0380 38.7866
v  -9.5380 9.5380 38.7866
v  11.0380 11.0380 38.7866
v  9.5380 9.5380 38.7866
v  15.5452 -15.5452 13.6772
v  15.3293 -15.3293 14.8318
v  12.9218 -12.9218 27.7067
v  12.6801 -12.6801 28.9997
# 196 vertices

vn 0.0000 -1.0000 0.0000
vn 1.0000 0.0000 0.0000
vn 0.0000 1.0000 0.0000
vn -1.0000 0.0000 0.0000
vn 0.0000 0.0000 1.0000
vn 0.0000 0.9999 0.0134
vn -0.0000 0.9999 0.0134
vn 0.0001 0.0000 1.0000
vn -0.0000 0.0000 1.0000
vn -0.0001 0.0000 1.0000
vn -0.0000 -0.0000 1.0000
vn -0.0001 -0.0000 1.0000
vn 0.0000 -0.0000 1.0000
vn 0.0001 -0.0000 1.0000
vn 0.0000 0.0000 -1.0000
vn -0.9999 0.0000 0.0134
vn -0.9999 -0.0000 0.0134
vn -0.0000 0.0001 1.0000
vn -0.0000 -0.0001 1.0000
vn 0.0000 -0.0001 1.0000
vn 0.0000 0.0001 1.0000
vn 1.0000 0.0017 0.0000
vn -1.0000 0.0017 0.0000
vn -0.0017 1.0000 0.0000
vn -0.0017 -1.0000 0.0000
vn -1.0000 -0.0017 0.0000
vn 1.0000 -0.0017 0.0000
vn 0.0017 -1.0000 0.0000
vn 0.0017 1.0000 0.0000
vn 1.0000 0.0000 -0.0000
vn 0.0052 1.0000 0.0000
vn -1.0000 -0.0000 0.0000
vn -1.0000 -0.0052 0.0000
vn -0.0000 -1.0000 -0.0000
vn 0.0000 -1.0000 -0.0000
vn 1.0000 -0.0052 0.0000
vn -0.0000 1.0000 0.0000
vn 1.0000 -0.0000 0.0000
vn -0.0052 1.0000 0.0000
vn -1.0000 0.0000 -0.0000
vn -1.0000 -0.0000 -0.0000
vn -0.0052 -1.0000 0.0000
vn -0.0000 -1.0000 0.0000
vn 1.0000 0.0052 0.0000
vn 0.0000 1.0000 -0.0000
vn -0.0000 1.0000 -0.0000
vn -1.0000 0.0052 0.0000
vn 0.0052 -1.0000 0.0000
vn 1.0000 -0.0000 -0.0000
vn 0.0000 0.0000 0.0000
vn 0.0000 -0.9999 0.0134
vn -0.0000 -0.9999 0.0134
vn -0.7071 -0.7071 0.0000
vn 0.7071 -0.7071 0.0000
vn -0.7071 0.7071 0.0000
vn 0.9999 0.0000 0.0134
vn 0.9999 -0.0000 0.0134
# 57 vertex normals

vt 1.0000 0.0000 0.0000
vt 1.0000 1.0000 0.0000
vt 0.8000 1.0000 0.0000
vt 0.8000 0.0000 0.0000
vt 0.6000 1.0000 0.0000
vt 0.6000 0.0000 0.0000
vt 0.4000 1.0000 0.0000
vt 0.4000 0.0000 0.0000
vt 0.2000 1.0000 0.0000
vt 0.0000 1.0000 0.0000
vt 0.0000 0.0000 0.0000
vt 0.2000 0.0000 0.0000
vt 1.0000 0.8000 0.0000
vt 1.0000 0.6000 0.0000
vt 1.0000 0.4000 0.0000
vt 1.0000 0.2000 0.0000
vt 0.0000 0.2000 0.0000
vt 0.0000 0.4000 0.0000
vt 0.0000 0.6000 0.0000
vt 0.0000 0.8000 0.0000
# 20 texture coords

g Box001
usemtl wire_008008136
s off
f 1/1/1 2/2/1 3/3/1 
f 4/4/1 1/1/1 3/3/1 
f 4/4/1 3/3/1 5/5/1 
f 6/6/1 4/4/1 5/5/1 
f 6/6/1 5/5/1 7/7/1 
f 8/8/1 6/6/1 7/7/1 
f 8/8/1 7/7/1 9/9/1 
f 10/10/1 11/11/1 12/12/1 
f 9/9/1 10/10/1 12/12/1 
f 8/8/1 9/9/1 12/12/1 
f 13/1/2 14/2/2 15/3/2 
f 16/4/2 13/1/2 15/3/2 
f 16/4/2 15/3/2 17/5/2 
f 18/6/2 16/4/2 17/5/2 
f 18/6/2 17/5/2 19/7/2 
f 20/8/2 18/6/2 19/7/2 
f 20/8/2 19/7/2 21/9/2 
f 2/10/2 1/11/2 22/12/2 
f 21/9/2 2/10/2 22/12/2 
f 20/8/2 21/9/2 22/12/2 
f 23/1/3 24/2/3 25/3/3 
f 26/4/3 23/1/3 25/3/3 
f 26/4/3 25/3/3 27/5/3 
f 28/6/3 26/4/3 27/5/3 
f 28/6/3 27/5/3 29/7/3 
f 30/8/3 28/6/3 29/7/3 
f 30/8/3 29/7/3 31/9/3 
f 14/10/3 13/11/3 32/12/3 
f 31/9/3 14/10/3 32/12/3 
f 30/8/3 31/9/3 32/12/3 
f 11/1/4 10/2/4 33/3/4 
f 34/4/4 11/1/4 33/3/4 
f 34/4/4 33/3/4 35/5/4 
f 36/6/4 34/4/4 35/5/4 
f 36/6/4 35/5/4 37/7/4 
f 38/8/4 36/6/4 37/7/4 
f 38/8/4 37/7/4 39/9/4 
f 24/10/4 23/11/4 40/12/4 
f 39/9/4 24/10/4 40/12/4 
f 38/8/4 39/9/4 40/12/4 
f 3/3/5 2/2/5 41/1/5 
f 3/3/5 41/1/5 42/4/5 
f 5/5/5 3/3/5 42/4/5 
f 5/5/5 42/4/5 43/6/5 
f 5/5/5 43/6/5 44/8/5 
f 7/7/5 5/5/5 44/8/5 
f 7/7/5 44/8/5 45/12/5 
f 46/11/5 10/10/5 9/9/5 
f 45/12/5 46/11/5 9/9/5 
f 7/7/5 45/12/5 9/9/5 
f 15/3/5 14/2/5 47/2/5 
f 15/3/5 47/2/5 48/13/5 
f 17/5/5 15/3/5 48/13/5 
f 17/5/5 48/13/5 49/14/5 
f 17/5/5 49/14/5 50/15/5 
f 19/7/5 17/5/5 50/15/5 
f 19/7/5 50/15/5 51/16/5 
f 41/1/5 2/10/5 21/9/5 
f 51/16/5 41/1/5 21/9/5 
f 19/7/5 51/16/5 21/9/5 
f 25/3/5 24/2/5 52/10/5 
f 25/3/5 52/10/5 53/9/5 
f 27/5/5 25/3/5 53/9/5 
f 27/5/5 53/9/5 54/7/5 
f 27/5/5 54/7/5 55/5/5 
f 29/7/5 27/5/5 55/5/5 
f 29/7/5 55/5/5 56/3/5 
f 47/2/5 14/10/5 31/9/5 
f 56/3/5 47/2/5 31/9/5 
f 29/7/5 56/3/5 31/9/5 
f 33/3/5 10/2/5 46/11/5 
f 33/3/5 46/11/5 57/17/5 
f 35/5/5 33/3/5 57/17/5 
f 35/5/5 57/17/5 58/18/5 
f 35/5/5 58/18/5 59/19/5 
f 37/7/5 35/5/5 59/19/5 
f 37/7/5 59/19/5 60/20/5 
f 52/10/5 24/10/5 39/9/5 
f 60/20/5 52/10/5 39/9/5 
f 37/7/5 60/20/5 39/9/5 
f 61/6/5 62/6/5 63/8/5 
f 63/8/5 64/8/5 61/6/5 
f 65/14/5 66/14/5 67/15/5 
f 67/15/5 68/15/5 65/14/5 
f 69/7/5 70/7/5 71/5/5 
f 71/5/5 72/5/5 69/7/5 
f 73/18/5 74/18/5 75/19/5 
f 75/19/5 76/19/5 73/18/5 
f 53/9/6 52/10/6 77/10/6 
f 53/9/7 77/10/7 78/10/7 
f 53/9/7 78/10/7 79/10/7 
f 53/9/7 79/10/7 80/10/7 
f 80/10/6 81/10/6 82/9/6 
f 80/10/6 82/9/6 83/7/6 
f 84/3/6 85/2/6 86/2/6 
f 87/5/6 84/3/6 86/2/6 
f 83/7/6 87/5/6 86/2/6 
f 83/7/7 86/2/7 88/2/7 
f 89/2/6 47/2/6 56/3/6 
f 89/2/6 56/3/6 55/5/6 
f 89/2/6 55/5/6 54/7/6 
f 90/2/6 89/2/6 54/7/6 
f 88/2/6 90/2/6 54/7/6 
f 83/7/6 88/2/6 54/7/6 
f 80/10/7 83/7/7 54/7/7 
f 53/9/6 80/10/6 54/7/6 
f 91/4/5 92/1/5 93/1/5 
f 93/1/8 94/4/8 91/4/8 
f 95/6/5 96/4/5 97/4/5 
f 97/4/5 98/6/5 95/6/5 
f 99/11/9 100/11/9 101/12/9 
f 101/12/10 102/12/10 99/11/10 
f 103/12/5 104/12/5 105/8/5 
f 105/8/5 106/8/5 103/12/5 
f 107/9/11 108/10/11 109/10/11 
f 109/10/12 110/9/12 107/9/12 
f 111/7/5 112/9/5 113/9/5 
f 113/9/5 114/7/5 111/7/5 
f 115/2/13 116/2/13 117/3/13 
f 117/3/14 118/3/14 115/2/14 
f 119/3/5 120/3/5 121/5/5 
f 121/5/5 122/5/5 119/3/5 
f 123/4/1 96/4/1 95/6/1 
f 95/6/1 124/6/1 123/4/1 
f 104/12/1 125/12/1 126/8/1 
f 126/8/1 105/8/1 104/12/1 
f 82/9/3 112/9/3 111/7/3 
f 111/7/3 83/7/3 82/9/3 
f 120/3/3 84/3/3 87/5/3 
f 87/5/3 121/5/3 120/3/3 
f 127/12/3 103/12/3 106/8/3 
f 106/8/3 128/8/3 127/12/3 
f 97/4/3 129/4/3 130/6/3 
f 130/6/3 98/6/3 97/4/3 
f 131/3/1 119/3/1 122/5/1 
f 122/5/1 132/5/1 131/3/1 
f 113/9/1 133/9/1 134/7/1 
f 134/7/1 114/7/1 113/9/1 
f 22/17/15 1/11/15 4/12/15 
f 22/17/15 4/12/15 6/8/15 
f 22/17/15 6/8/15 8/6/15 
f 12/4/15 11/1/15 34/16/15 
f 8/6/15 12/4/15 34/16/15 
f 22/17/15 8/6/15 34/16/15 
f 22/17/15 34/16/15 36/15/15 
f 20/18/15 22/17/15 36/15/15 
f 18/19/15 20/18/15 36/15/15 
f 18/19/15 36/15/15 38/14/15 
f 18/19/15 38/14/15 40/13/15 
f 40/13/15 23/2/15 26/3/15 
f 40/13/15 26/3/15 28/5/15 
f 32/9/15 13/10/15 16/20/15 
f 30/7/15 32/9/15 16/20/15 
f 28/5/15 30/7/15 16/20/15 
f 40/13/15 28/5/15 16/20/15 
f 18/19/15 40/13/15 16/20/15 
f 133/9/5 135/10/5 136/20/5 
f 133/9/5 136/20/5 137/19/5 
f 134/7/5 133/9/5 137/19/5 
f 132/5/5 134/7/5 137/19/5 
f 132/5/5 137/19/5 138/18/5 
f 139/17/5 140/11/5 127/12/5 
f 139/17/5 127/12/5 128/8/5 
f 138/18/5 139/17/5 128/8/5 
f 132/5/5 138/18/5 128/8/5 
f 132/5/5 128/8/5 130/6/5 
f 129/4/5 141/1/5 142/16/5 
f 129/4/5 142/16/5 143/15/5 
f 130/6/5 129/4/5 143/15/5 
f 130/6/5 143/15/5 144/14/5 
f 132/5/5 130/6/5 144/14/5 
f 145/13/5 146/2/5 131/3/5 
f 144/14/5 145/13/5 131/3/5 
f 132/5/5 144/14/5 131/3/5 
f 57/17/16 46/11/16 147/11/16 
f 57/17/17 147/11/17 148/11/17 
f 57/17/17 148/11/17 149/11/17 
f 150/11/16 151/11/16 152/17/16 
f 149/11/16 150/11/16 152/17/16 
f 57/17/17 149/11/17 152/17/17 
f 153/20/16 81/10/16 80/10/16 
f 153/20/17 80/10/17 79/10/17 
f 153/20/16 79/10/16 78/10/16 
f 77/10/16 52/10/16 60/20/16 
f 78/10/16 77/10/16 60/20/16 
f 153/20/16 78/10/16 60/20/16 
f 154/19/16 153/20/16 60/20/16 
f 154/19/16 60/20/16 59/19/16 
f 155/18/16 154/19/16 59/19/16 
f 155/18/16 59/19/16 58/18/16 
f 152/17/16 155/18/16 58/18/16 
f 57/17/16 152/17/16 58/18/16 
f 156/13/9 116/2/9 115/2/9 
f 115/2/18 157/13/18 156/13/18 
f 158/14/5 159/13/5 160/13/5 
f 160/13/5 161/14/5 158/14/5 
f 93/1/11 92/1/11 162/16/11 
f 162/16/19 163/16/19 93/1/19 
f 164/16/5 165/16/5 166/15/5 
f 166/15/5 167/15/5 164/16/5 
f 168/17/13 100/11/13 99/11/13 
f 99/11/20 169/17/20 168/17/20 
f 170/18/5 171/17/5 172/17/5 
f 172/17/5 173/18/5 170/18/5 
f 109/10/5 108/10/5 174/20/5 
f 174/20/21 175/20/21 109/10/21 
f 176/20/5 177/20/5 178/19/5 
f 178/19/5 179/19/5 176/20/5 
f 180/13/2 159/13/2 158/14/2 
f 158/14/2 181/14/2 180/13/2 
f 165/16/2 182/16/2 183/15/2 
f 183/15/2 166/15/2 165/16/2 
f 152/17/4 171/17/4 170/18/4 
f 170/18/4 155/18/4 152/17/4 
f 177/20/4 153/20/4 154/19/4 
f 154/19/4 178/19/4 177/20/4 
f 136/20/2 176/20/2 179/19/2 
f 179/19/2 137/19/2 136/20/2 
f 172/17/2 139/17/2 138/18/2 
f 138/18/2 173/18/2 172/17/2 
f 142/16/4 164/16/4 167/15/4 
f 167/15/4 143/15/4 142/16/4 
f 160/13/4 145/13/4 144/14/4 
f 144/14/4 161/14/4 160/13/4 
f 105/8/1 126/8/1 124/6/1 
f 105/8/1 124/6/1 95/6/1 
f 105/8/1 95/6/1 61/6/1 
f 105/8/1 61/6/1 64/8/1 
f 95/6/22 98/6/22 62/6/22 
f 62/6/22 61/6/22 95/6/22 
f 98/6/3 130/6/3 128/8/3 
f 98/6/3 128/8/3 106/8/3 
f 98/6/3 106/8/3 63/8/3 
f 98/6/3 63/8/3 62/6/3 
f 106/8/23 105/8/23 64/8/23 
f 64/8/23 63/8/23 106/8/23 
f 166/15/2 183/15/2 181/14/2 
f 166/15/2 181/14/2 158/14/2 
f 166/15/2 158/14/2 65/14/2 
f 166/15/2 65/14/2 68/15/2 
f 158/14/24 161/14/24 66/14/24 
f 66/14/24 65/14/24 158/14/24 
f 161/14/4 144/14/4 143/15/4 
f 161/14/4 143/15/4 167/15/4 
f 161/14/4 167/15/4 67/15/4 
f 161/14/4 67/15/4 66/14/4 
f 167/15/25 166/15/25 68/15/25 
f 68/15/25 67/15/25 167/15/25 
f 121/5/3 87/5/3 83/7/3 
f 121/5/3 83/7/3 111/7/3 
f 121/5/3 111/7/3 69/7/3 
f 121/5/3 69/7/3 72/5/3 
f 111/7/26 114/7/26 70/7/26 
f 70/7/26 69/7/26 111/7/26 
f 114/7/1 134/7/1 132/5/1 
f 114/7/1 132/5/1 122/5/1 
f 114/7/1 122/5/1 71/5/1 
f 114/7/1 71/5/1 70/7/1 
f 122/5/27 121/5/27 72/5/27 
f 72/5/27 71/5/27 122/5/27 
f 178/19/4 154/19/4 155/18/4 
f 178/19/4 155/18/4 170/18/4 
f 178/19/4 170/18/4 73/18/4 
f 178/19/4 73/18/4 76/19/4 
f 170/18/28 173/18/28 74/18/28 
f 74/18/28 73/18/28 170/18/28 
f 173/18/2 138/18/2 137/19/2 
f 173/18/2 137/19/2 179/19/2 
f 173/18/2 179/19/2 75/19/2 
f 173/18/2 75/19/2 74/18/2 
f 179/19/29 178/19/29 76/19/29 
f 76/19/29 75/19/29 179/19/29 
f 184/1/2 185/1/2 182/16/2 
f 184/1/2 182/16/2 165/16/2 
f 184/1/30 165/16/30 162/16/30 
f 184/1/30 162/16/30 92/1/30 
f 165/16/31 164/16/31 163/16/31 
f 163/16/31 162/16/31 165/16/31 
f 164/16/4 142/16/4 141/1/4 
f 164/16/4 141/1/4 186/1/4 
f 164/16/32 186/1/32 93/1/32 
f 164/16/32 93/1/32 163/16/32 
f 186/1/3 141/1/3 129/4/3 
f 186/1/3 129/4/3 97/4/3 
f 186/1/3 97/4/3 94/4/3 
f 186/1/3 94/4/3 93/1/3 
f 97/4/33 96/4/33 91/4/33 
f 91/4/33 94/4/33 97/4/33 
f 96/4/1 123/4/1 185/1/1 
f 96/4/1 185/1/1 184/1/1 
f 96/4/34 184/1/34 92/1/34 
f 96/4/34 92/1/34 91/4/34 
f 187/11/1 151/11/1 125/12/1 
f 187/11/1 125/12/1 104/12/1 
f 187/11/35 104/12/35 101/12/35 
f 187/11/35 101/12/35 100/11/35 
f 104/12/36 103/12/36 102/12/36 
f 102/12/36 101/12/36 104/12/36 
f 103/12/3 127/12/3 140/11/3 
f 103/12/3 140/11/3 188/11/3 
f 103/12/37 188/11/37 99/11/37 
f 103/12/37 99/11/37 102/12/37 
f 188/11/2 140/11/2 139/17/2 
f 188/11/2 139/17/2 172/17/2 
f 188/11/38 172/17/38 169/17/38 
f 188/11/38 169/17/38 99/11/38 
f 172/17/39 171/17/39 168/17/39 
f 168/17/39 169/17/39 172/17/39 
f 171/17/4 152/17/4 151/11/4 
f 171/17/4 151/11/4 187/11/4 
f 171/17/40 187/11/40 100/11/40 
f 171/17/40 100/11/40 168/17/40 
f 189/10/4 81/10/4 153/20/4 
f 189/10/4 153/20/4 177/20/4 
f 189/10/41 177/20/41 174/20/41 
f 189/10/41 174/20/41 108/10/41 
f 177/20/42 176/20/42 175/20/42 
f 175/20/42 174/20/42 177/20/42 
f 176/20/2 136/20/2 135/10/2 
f 176/20/2 135/10/2 190/10/2 
f 176/20/2 190/10/2 109/10/2 
f 176/20/2 109/10/2 175/20/2 
f 190/10/1 135/10/1 133/9/1 
f 190/10/1 133/9/1 113/9/1 
f 190/10/43 113/9/43 110/9/43 
f 190/10/43 110/9/43 109/10/43 
f 113/9/44 112/9/44 107/9/44 
f 107/9/44 110/9/44 113/9/44 
f 112/9/3 82/9/3 81/10/3 
f 112/9/3 81/10/3 189/10/3 
f 112/9/45 189/10/45 108/10/45 
f 112/9/45 108/10/45 107/9/45 
f 191/2/3 85/2/3 84/3/3 
f 191/2/3 84/3/3 120/3/3 
f 191/2/46 120/3/46 117/3/46 
f 191/2/46 117/3/46 116/2/46 
f 120/3/47 119/3/47 118/3/47 
f 118/3/47 117/3/47 120/3/47 
f 119/3/1 131/3/1 146/2/1 
f 119/3/1 146/2/1 192/2/1 
f 119/3/1 192/2/1 115/2/1 
f 119/3/1 115/2/1 118/3/1 
f 192/2/4 146/2/4 145/13/4 
f 192/2/4 145/13/4 160/13/4 
f 192/2/4 160/13/4 157/13/4 
f 192/2/4 157/13/4 115/2/4 
f 160/13/48 159/13/48 156/13/48 
f 156/13/48 157/13/48 160/13/48 
f 159/13/2 180/13/2 85/2/2 
f 159/13/2 85/2/2 191/2/2 
f 159/13/49 191/2/49 116/2/49 
f 159/13/49 116/2/49 156/13/49 
f 123/4/50 124/6/50 126/8/50 
f 125/12/51 151/11/51 150/11/51 
f 125/12/51 150/11/51 149/11/51 
f 125/12/52 149/11/52 148/11/52 
f 147/11/51 46/11/51 45/12/51 
f 147/11/51 45/12/51 44/8/51 
f 147/11/51 44/8/51 43/6/51 
f 42/4/51 41/1/51 193/1/51 
f 43/6/51 42/4/51 193/1/51 
f 147/11/51 43/6/51 193/1/51 
f 148/11/51 147/11/51 193/1/51 
f 125/12/51 148/11/51 193/1/51 
f 126/8/51 125/12/51 193/1/51 
f 123/4/51 126/8/51 193/1/51 
f 193/1/53 194/1/53 195/1/53 
f 123/4/51 193/1/51 195/1/51 
f 123/4/52 195/1/52 196/1/52 
f 123/4/51 196/1/51 185/1/51 
f 89/2/54 90/2/54 88/2/54 
f 89/2/55 88/2/55 86/2/55 
f 86/2/56 85/2/56 180/13/56 
f 89/2/57 86/2/57 180/13/57 
f 89/2/56 180/13/56 181/14/56 
f 181/14/50 183/15/50 182/16/50 
f 89/2/56 181/14/56 182/16/56 
f 182/16/56 185/1/56 196/1/56 
f 182/16/56 196/1/56 195/1/56 
f 182/16/57 195/1/57 194/1/57 
f 89/2/56 182/16/56 194/1/56 
f 194/1/53 193/1/53 41/1/53 
f 194/1/56 41/1/56 51/16/56 
f 194/1/56 51/16/56 50/15/56 
f 194/1/56 50/15/56 49/14/56 
f 89/2/56 194/1/56 49/14/56 
f 89/2/56 49/14/56 48/13/56 
f 89/2/56 48/13/56 47/2/56 
# 388 faces

